<svg xmlns="http://www.w3.org/2000/svg" xmlns:xlink="http://www.w3.org/1999/xlink" width="256" zoomAndPan="magnify" viewBox="0 0 192 191.999996" height="256" preserveAspectRatio="xMidYMid meet" version="1.0"><defs><clipPath id="9e52778272"><path d="M 2.886719 2.886719 L 189.675781 2.886719 L 189.675781 189.675781 L 2.886719 189.675781 Z M 2.886719 2.886719 " clip-rule="nonzero"/></clipPath><clipPath id="7ab16a74c0"><path d="M 96.28125 2.886719 C 44.703125 2.886719 2.886719 44.703125 2.886719 96.28125 C 2.886719 147.859375 44.703125 189.675781 96.28125 189.675781 C 147.859375 189.675781 189.675781 147.859375 189.675781 96.28125 C 189.675781 44.703125 147.859375 2.886719 96.28125 2.886719 Z M 96.28125 2.886719 " clip-rule="nonzero"/></clipPath></defs><g clip-path="url(#9e52778272)"><g clip-path="url(#7ab16a74c0)"><path fill="#229ed9" d="M 2.886719 2.886719 L 189.675781 2.886719 L 189.675781 189.675781 L 2.886719 189.675781 Z M 2.886719 2.886719 " fill-opacity="1" fill-rule="nonzero"/></g></g><path fill="#fefefe" d="M 49.847656 51.976562 L 144.34375 51.976562 C 146.941406 51.976562 149.335938 52.355469 151.5 53.132812 C 153.667969 53.90625 155.417969 55.011719 156.773438 56.449219 C 158.128906 57.882812 159.023438 59.648438 159.453125 61.710938 C 159.882812 63.773438 159.714844 66.117188 158.9375 68.710938 L 148.097656 106.648438 C 147.417969 108.960938 146.308594 111.054688 144.773438 112.921875 C 143.234375 114.800781 141.453125 116.4375 139.433594 117.824219 C 137.417969 119.226562 135.21875 120.363281 132.855469 121.289062 C 130.492188 122.195312 128.164062 122.855469 125.847656 123.234375 L 142.179688 148.1875 L 108.230469 148.1875 L 90.890625 123.367188 L 71.535156 123.367188 L 64.460938 148.1875 L 34.542969 148.1875 L 56.789062 70.574219 L 49.847656 51.960938 Z M 79.039062 97.425781 L 120.789062 97.425781 L 126.425781 77.953125 L 84.675781 77.953125 Z M 79.039062 97.425781 " fill-opacity="1" fill-rule="nonzero"/><path stroke-linecap="butt" transform="matrix(0.0223235, 0, 0, 0.0222883, 1.443752, -26.476595)" fill="none" stroke-linejoin="miter" d="M 1918.064426 3227.41401 L 6151.0911 3227.41401 C 6267.455151 3227.41401 6374.720057 3244.414228 6471.660935 3279.290965 C 6568.776796 3313.992441 6647.16942 3363.591015 6707.888706 3428.086688 C 6768.607992 3492.407101 6808.679222 3571.799873 6827.92741 3664.337143 C 6847.175599 3756.874413 6839.651307 3862.030401 6804.829584 3978.227769 L 6319.250277 5680.527964 C 6288.803142 5784.106612 6239.107818 5878.221222 6170.339289 5961.820233 C 6101.395777 6046.295544 6021.603285 6119.554216 5931.136798 6181.771509 C 5840.845294 6244.689842 5742.329565 6295.865757 5636.464526 6337.227112 C 5530.599488 6377.887428 5426.309302 6407.506365 5322.544066 6424.681843 L 6054.150222 7544.067341 L 4533.193344 7544.242601 L 3756.616419 6430.640682 L 2889.573007 6430.640682 L 2572.677827 7544.242601 L 1232.478939 7544.242601 L 2229.010166 4061.82678 L 1918.064426 3226.71297 Z M 3225.716376 5266.563889 L 5095.940389 5266.563889 L 5348.441629 4392.892884 L 3478.217616 4392.892884 Z M 3225.716376 5266.563889 " stroke="#3e4095" stroke-width="41.669998" stroke-opacity="1" stroke-miterlimit="2.613"/></svg>