<svg xmlns="http://www.w3.org/2000/svg" xmlns:xlink="http://www.w3.org/1999/xlink" width="500" zoomAndPan="magnify"
    viewBox="0 0 375 374.999991" height="500" preserveAspectRatio="xMidYMid meet" version="1.0">
    <defs>
        <clipPath id="3c38e5bea5">
            <path d="M 11 66.394531 L 158 66.394531 L 158 183 L 11 183 Z M 11 66.394531 " clip-rule="nonzero" />
        </clipPath>
        <clipPath id="23bda7bb7b">
            <path d="M 122 66.394531 L 264 66.394531 L 264 183 L 122 183 Z M 122 66.394531 " clip-rule="nonzero" />
        </clipPath>
        <clipPath id="01ee80b35c">
            <path d="M 228 66.394531 L 375 66.394531 L 375 183 L 228 183 Z M 228 66.394531 " clip-rule="nonzero" />
        </clipPath>
        <clipPath id="54e84273f2">
            <path d="M 4.554688 159 L 143 159 L 143 280 L 4.554688 280 Z M 4.554688 159 " clip-rule="nonzero" />
        </clipPath>
    </defs>
    <path fill="#000000"
        d="M 45.429688 83.285156 L 134.042969 83.285156 C 136.476562 83.285156 138.726562 83.640625 140.757812 84.367188 C 142.785156 85.097656 144.429688 86.136719 145.699219 87.484375 C 146.972656 88.832031 147.808594 90.492188 148.210938 92.429688 C 148.613281 94.367188 148.460938 96.566406 147.730469 99 L 137.5625 134.636719 C 136.925781 136.804688 135.890625 138.773438 134.449219 140.523438 C 133.007812 142.292969 131.332031 143.828125 129.441406 145.128906 C 127.550781 146.445312 125.488281 147.515625 123.273438 148.382812 C 121.054688 149.234375 118.871094 149.855469 116.699219 150.210938 L 132.015625 173.648438 L 100.175781 173.648438 L 83.917969 150.335938 L 65.765625 150.335938 L 59.132812 173.648438 L 31.078125 173.648438 L 51.941406 100.753906 L 45.429688 83.269531 Z M 72.804688 125.972656 L 111.957031 125.972656 L 117.242188 107.679688 L 78.089844 107.679688 Z M 72.804688 125.972656 "
        fill-opacity="1" fill-rule="nonzero" />
    <path fill="#000000"
        d="M 163.449219 100.769531 L 156.9375 83.285156 L 253.6875 83.285156 L 250.835938 93.171875 C 250.386719 94.707031 249.796875 96.320312 249.070312 97.976562 C 248.339844 99.652344 247.503906 101.203125 246.558594 102.660156 C 245.613281 104.101562 244.527344 105.292969 243.304688 106.253906 C 242.078125 107.214844 240.792969 107.679688 239.445312 107.679688 L 189.582031 107.679688 L 187.007812 116.34375 L 235.925781 116.34375 L 229.011719 140.742188 L 180.09375 140.742188 L 177.660156 149.28125 L 234.839844 149.28125 L 227.789062 173.679688 L 142.554688 173.679688 L 163.417969 100.785156 Z M 163.449219 100.769531 "
        fill-opacity="1" fill-rule="nonzero" />
    <path fill="#000000"
        d="M 262.492188 83.285156 L 351.105469 83.285156 C 353.539062 83.285156 355.789062 83.640625 357.816406 84.367188 C 359.847656 85.097656 361.492188 86.136719 362.761719 87.484375 C 364.035156 88.832031 364.871094 90.492188 365.273438 92.429688 C 365.675781 94.367188 365.519531 96.566406 364.792969 99 L 354.625 134.636719 C 353.988281 136.804688 352.949219 138.773438 351.507812 140.523438 C 350.066406 142.292969 348.394531 143.828125 346.503906 145.128906 C 344.613281 146.445312 342.550781 147.515625 340.332031 148.382812 C 338.117188 149.234375 335.933594 149.855469 333.761719 150.210938 L 349.074219 173.648438 L 317.238281 173.648438 L 300.980469 150.335938 L 282.828125 150.335938 L 276.195312 173.648438 L 248.140625 173.648438 L 269.003906 100.753906 L 262.492188 83.269531 Z M 289.867188 125.972656 L 329.019531 125.972656 L 334.304688 107.679688 L 295.152344 107.679688 Z M 289.867188 125.972656 "
        fill-opacity="1" fill-rule="nonzero" />
    <path fill="#000000"
        d="M 30.195312 180.4375 L 118.824219 180.4375 C 121.257812 180.4375 123.503906 180.792969 125.535156 181.523438 C 127.566406 182.25 129.207031 183.289062 130.480469 184.636719 C 131.75 185.988281 132.570312 187.644531 132.992188 189.582031 C 133.394531 191.519531 133.238281 193.722656 132.511719 196.15625 L 115.570312 255.101562 C 114.839844 257.535156 113.738281 259.734375 112.25 261.671875 C 110.761719 263.609375 108.996094 265.269531 106.964844 266.617188 C 104.933594 267.980469 102.703125 269.003906 100.253906 269.734375 C 97.820312 270.460938 95.371094 270.816406 92.9375 270.816406 L 15.824219 270.816406 L 36.6875 197.90625 L 30.179688 180.421875 Z M 102.023438 204.835938 L 62.851562 204.835938 L 50.933594 246.4375 L 90.101562 246.4375 Z M 102.023438 204.835938 "
        fill-opacity="1" fill-rule="nonzero" />
    <path fill="#000000"
        d="M 171.800781 197.921875 L 165.292969 180.4375 L 222.347656 180.4375 L 235.769531 270.816406 L 204.738281 270.816406 L 202.972656 258.078125 L 159.339844 258.078125 L 150.398438 270.816406 L 107.710938 287.078125 L 171.800781 197.90625 Z M 176.808594 233.554688 L 199.578125 233.554688 L 196.058594 206.726562 Z M 176.808594 233.554688 "
        fill-opacity="1" fill-rule="nonzero" />
    <path fill="#000000"
        d="M 358.25 196.15625 L 341.308594 255.101562 C 340.582031 257.535156 339.480469 259.734375 337.992188 261.671875 C 336.503906 263.609375 334.738281 265.269531 332.707031 266.617188 C 330.675781 267.980469 328.445312 269.003906 325.996094 269.734375 C 323.546875 270.460938 321.113281 270.816406 318.679688 270.816406 L 259.734375 270.816406 C 257.300781 270.816406 255.082031 270.460938 253.101562 269.734375 C 251.117188 269.003906 249.488281 267.964844 248.21875 266.617188 C 246.945312 265.269531 246.09375 263.609375 245.644531 261.671875 C 245.195312 259.734375 245.335938 257.535156 246.046875 255.101562 L 262.988281 196.15625 C 263.71875 193.722656 264.816406 191.519531 266.304688 189.582031 C 267.792969 187.644531 269.5625 185.988281 271.589844 184.636719 C 273.621094 183.289062 275.855469 182.25 278.304688 181.523438 C 280.738281 180.792969 283.183594 180.4375 285.617188 180.4375 L 344.566406 180.4375 C 347 180.4375 349.246094 180.792969 351.277344 181.523438 C 353.308594 182.25 354.949219 183.289062 356.222656 184.636719 C 357.492188 185.988281 358.328125 187.644531 358.730469 189.582031 C 359.136719 191.519531 358.980469 193.722656 358.25 196.15625 Z M 315.84375 246.4375 L 327.761719 204.835938 L 288.59375 204.835938 L 276.675781 246.4375 Z M 315.84375 246.4375 "
        fill-opacity="1" fill-rule="nonzero" />
    <g clip-path="url(#3c38e5bea5)">
        <path stroke-linecap="butt" transform="matrix(1.55, 0, 0, 1.55, -92.146996, -90.300748)" fill="none"
            stroke-linejoin="miter"
            d="M 85.379624 108.039306 L 142.54949 108.039306 C 144.119551 108.039306 145.571164 108.27116 146.879127 108.73991 C 148.189611 109.211181 149.2506 109.879023 150.069652 110.750999 C 150.891225 111.620455 151.430539 112.689004 151.690116 113.939004 C 151.949693 115.189004 151.848886 116.610375 151.380136 118.180436 L 144.820155 141.16935 C 144.409369 142.57056 143.739006 143.840721 142.809066 144.969753 C 141.879127 146.108866 140.800498 147.09929 139.580739 147.941024 C 138.360981 148.790318 137.030336 149.480843 135.598884 150.040319 C 134.169953 150.589714 132.761182 150.990419 131.359972 151.219754 L 141.239006 166.340724 L 120.699689 166.340724 L 110.210776 151.300399 L 98.499585 151.300399 L 94.220351 166.340724 L 76.120551 166.340724 L 89.580734 119.309468 L 85.379624 108.029225 Z M 103.040917 135.579631 L 128.300496 135.579631 L 131.710275 123.780235 L 106.450695 123.780235 Z M 103.040917 135.579631 "
            stroke="#bcbec0" stroke-width="0.67" stroke-opacity="1" stroke-miterlimit="10" />
    </g>
    <g clip-path="url(#23bda7bb7b)">
        <path stroke-linecap="butt" transform="matrix(1.55, 0, 0, 1.55, -92.146996, -90.300748)" fill="none"
            stroke-linejoin="miter"
            d="M 161.528827 119.319549 L 157.330238 108.039306 L 219.7496 108.039306 L 217.909882 114.420355 C 217.620063 115.410778 217.239519 116.449085 216.770769 117.520153 C 216.299498 118.598783 215.760184 119.599287 215.150305 120.539307 C 214.540426 121.469247 213.839821 122.240416 213.05101 122.860376 C 212.259679 123.480336 211.430546 123.780235 210.561091 123.780235 L 178.391228 123.780235 L 176.730441 129.369953 L 208.290425 129.369953 L 203.829739 145.110882 L 172.269755 145.110882 L 170.699695 150.619956 L 207.58982 150.619956 L 203.040928 166.360885 L 148.051003 166.360885 L 161.511186 119.329629 Z M 161.528827 119.319549 "
            stroke="#bcbec0" stroke-width="0.67" stroke-opacity="1" stroke-miterlimit="10" />
    </g>
    <g clip-path="url(#01ee80b35c)">
        <path stroke-linecap="butt" transform="matrix(1.55, 0, 0, 1.55, -92.146996, -90.300748)" fill="none"
            stroke-linejoin="miter"
            d="M 225.430044 108.039306 L 282.599909 108.039306 C 284.16997 108.039306 285.619063 108.27116 286.929547 108.73991 C 288.240031 109.211181 289.301019 109.879023 290.120072 110.750999 C 290.939124 111.620455 291.480959 112.689004 291.740536 113.939004 C 292.000112 115.189004 291.899306 116.610375 291.430556 118.180436 L 284.870575 141.16935 C 284.459789 142.57056 283.789426 143.840721 282.859486 144.969753 C 281.929547 146.108866 280.850917 147.09929 279.631159 147.941024 C 278.408881 148.790318 277.080756 149.480843 275.649304 150.040319 C 274.220372 150.589714 272.809082 150.990419 271.410392 151.219754 L 281.289425 166.340724 L 260.750109 166.340724 L 250.258676 151.300399 L 238.550005 151.300399 L 234.270771 166.340724 L 216.17097 166.340724 L 229.631153 119.309468 L 225.430044 108.029225 Z M 243.088816 135.579631 L 268.350916 135.579631 L 271.760695 123.780235 L 246.501115 123.780235 Z M 243.088816 135.579631 "
            stroke="#bcbec0" stroke-width="0.67" stroke-opacity="1" stroke-miterlimit="10" />
    </g>
    <g clip-path="url(#54e84273f2)">
        <path stroke-linecap="butt" transform="matrix(1.55, 0, 0, 1.55, -92.146996, -90.300748)" fill="none"
            stroke-linejoin="miter"
            d="M 75.561075 170.720764 L 132.741021 170.720764 C 134.311082 170.720764 135.760175 170.950099 137.070659 171.418849 C 138.381143 171.890119 139.43961 172.560482 140.261183 173.429938 C 141.080236 174.299394 141.60947 175.370463 141.879127 176.620463 C 142.141224 177.870463 142.040417 179.289314 141.569147 180.859375 L 130.639206 218.891133 C 130.170456 220.461194 129.459771 221.880045 128.499589 223.130045 C 127.539407 224.380045 126.400294 225.451114 125.08981 226.320569 C 123.779326 227.200106 122.340314 227.860388 120.760173 228.329138 C 119.190112 228.800408 117.609971 229.029743 116.03991 229.029743 L 66.2894 229.029743 L 79.749583 181.990927 L 75.550994 170.710684 Z M 121.899286 186.459174 L 96.629626 186.459174 L 88.940613 213.298894 L 114.210273 213.298894 Z M 121.899286 186.459174 "
            stroke="#bcbec0" stroke-width="0.67" stroke-opacity="1" stroke-miterlimit="10" />
    </g>
    <path stroke-linecap="butt" transform="matrix(1.55, 0, 0, 1.55, -92.146996, -90.300748)" fill="none"
        stroke-linejoin="miter"
        d="M 166.909372 182.001008 L 162.710783 170.720764 L 199.520263 170.720764 L 208.179538 229.029743 L 188.159374 229.029743 L 187.020261 220.808976 L 158.870056 220.808976 L 153.098886 229.029743 L 125.561081 239.521176 L 166.909372 181.990927 Z M 170.140219 204.989922 L 184.830241 204.989922 L 182.559575 187.678932 Z M 170.140219 204.989922 "
        stroke="#bcbec0" stroke-width="0.67" stroke-opacity="1" stroke-miterlimit="10" />
    <path stroke-linecap="butt" transform="matrix(1.55, 0, 0, 1.55, -92.146996, -90.300748)" fill="none"
        stroke-linejoin="miter"
        d="M 287.209285 180.859375 L 276.279344 218.891133 C 275.810594 220.461194 275.099909 221.880045 274.139727 223.130045 C 273.179545 224.380045 272.040432 225.451114 270.729948 226.320569 C 269.419464 227.200106 267.980452 227.860388 266.400311 228.329138 C 264.82017 228.800408 263.250109 229.029743 261.680048 229.029743 L 223.65081 229.029743 C 222.080749 229.029743 220.649297 228.800408 219.369055 228.329138 C 218.088813 227.860388 217.040426 227.190025 216.218853 226.320569 C 215.399801 225.451114 214.850406 224.380045 214.560587 223.130045 C 214.270768 221.880045 214.358974 220.461194 214.820164 218.891133 L 225.750104 180.859375 C 226.218854 179.289314 226.92954 177.870463 227.889722 176.620463 C 228.849903 175.370463 229.989016 174.299394 231.2995 173.429938 C 232.609984 172.560482 234.048997 171.890119 235.629138 171.418849 C 237.199199 170.950099 238.77934 170.720764 240.349401 170.720764 L 278.381159 170.720764 C 279.95122 170.720764 281.400313 170.950099 282.710797 171.418849 C 284.01876 171.890119 285.079748 172.560482 285.898801 173.429938 C 286.720374 174.299394 287.259688 175.370463 287.519265 176.620463 C 287.778842 177.870463 287.680555 179.289314 287.209285 180.859375 Z M 259.850411 213.298894 L 267.539424 186.459174 L 242.269764 186.459174 L 234.580751 213.298894 Z M 259.850411 213.298894 "
        stroke="#bcbec0" stroke-width="0.67" stroke-opacity="1" stroke-miterlimit="10" />
</svg>